<?xml version="1.0" encoding="utf-8" standalone="no"?>
<!DOCTYPE svg PUBLIC "-//W3C//DTD SVG 1.1//EN"
  "http://www.w3.org/Graphics/SVG/1.1/DTD/svg11.dtd">
<!-- Created with matplotlib (http://matplotlib.org/) -->
<svg height="194.078125pt" version="1.1" viewBox="0 0 597.382812 194.078125" width="597.382812pt" xmlns="http://www.w3.org/2000/svg" xmlns:xlink="http://www.w3.org/1999/xlink">
 <defs>
  <style type="text/css">
*{stroke-linecap:butt;stroke-linejoin:round;}
  </style>
 </defs>
 <g id="figure_1">
  <g id="patch_1">
   <path d="M 0 194.078125 
L 597.382812 194.078125 
L 597.382812 0 
L 0 0 
z
" style="fill:#ffffff;"/>
  </g>
  <g id="axes_1">
   <g id="patch_2">
    <path d="M 48.982813 166.2 
L 290.745312 166.2 
L 290.745312 10.7 
L 48.982813 10.7 
z
" style="fill:#ffffff;"/>
   </g>
   <g id="matplotlib.axis_1">
    <g id="xtick_1">
     <g id="line2d_1">
      <defs>
       <path d="M 0 0 
L 0 3.5 
" id="m08e374342f" style="stroke:#000000;stroke-width:0.8;"/>
      </defs>
      <g>
       <use style="stroke:#000000;stroke-width:0.8;" x="59.972017" xlink:href="#m08e374342f" y="166.2"/>
      </g>
     </g>
    </g>
    <g id="xtick_2">
     <g id="line2d_2">
      <g>
       <use style="stroke:#000000;stroke-width:0.8;" x="96.602699" xlink:href="#m08e374342f" y="166.2"/>
      </g>
     </g>
    </g>
    <g id="xtick_3">
     <g id="line2d_3">
      <g>
       <use style="stroke:#000000;stroke-width:0.8;" x="133.233381" xlink:href="#m08e374342f" y="166.2"/>
      </g>
     </g>
    </g>
    <g id="xtick_4">
     <g id="line2d_4">
      <g>
       <use style="stroke:#000000;stroke-width:0.8;" x="169.864062" xlink:href="#m08e374342f" y="166.2"/>
      </g>
     </g>
    </g>
    <g id="xtick_5">
     <g id="line2d_5">
      <g>
       <use style="stroke:#000000;stroke-width:0.8;" x="206.494744" xlink:href="#m08e374342f" y="166.2"/>
      </g>
     </g>
    </g>
    <g id="xtick_6">
     <g id="line2d_6">
      <g>
       <use style="stroke:#000000;stroke-width:0.8;" x="243.125426" xlink:href="#m08e374342f" y="166.2"/>
      </g>
     </g>
    </g>
    <g id="xtick_7">
     <g id="line2d_7">
      <g>
       <use style="stroke:#000000;stroke-width:0.8;" x="279.756108" xlink:href="#m08e374342f" y="166.2"/>
      </g>
     </g>
    </g>
    <g id="text_1">
     <!-- Parameter sets -->
     <defs>
      <path d="M 19.671875 64.796875 
L 19.671875 37.40625 
L 32.078125 37.40625 
Q 38.96875 37.40625 42.71875 40.96875 
Q 46.484375 44.53125 46.484375 51.125 
Q 46.484375 57.671875 42.71875 61.234375 
Q 38.96875 64.796875 32.078125 64.796875 
z
M 9.8125 72.90625 
L 32.078125 72.90625 
Q 44.34375 72.90625 50.609375 67.359375 
Q 56.890625 61.8125 56.890625 51.125 
Q 56.890625 40.328125 50.609375 34.8125 
Q 44.34375 29.296875 32.078125 29.296875 
L 19.671875 29.296875 
L 19.671875 0 
L 9.8125 0 
z
" id="DejaVuSans-50"/>
      <path d="M 34.28125 27.484375 
Q 23.390625 27.484375 19.1875 25 
Q 14.984375 22.515625 14.984375 16.5 
Q 14.984375 11.71875 18.140625 8.90625 
Q 21.296875 6.109375 26.703125 6.109375 
Q 34.1875 6.109375 38.703125 11.40625 
Q 43.21875 16.703125 43.21875 25.484375 
L 43.21875 27.484375 
z
M 52.203125 31.203125 
L 52.203125 0 
L 43.21875 0 
L 43.21875 8.296875 
Q 40.140625 3.328125 35.546875 0.953125 
Q 30.953125 -1.421875 24.3125 -1.421875 
Q 15.921875 -1.421875 10.953125 3.296875 
Q 6 8.015625 6 15.921875 
Q 6 25.140625 12.171875 29.828125 
Q 18.359375 34.515625 30.609375 34.515625 
L 43.21875 34.515625 
L 43.21875 35.40625 
Q 43.21875 41.609375 39.140625 45 
Q 35.0625 48.390625 27.6875 48.390625 
Q 23 48.390625 18.546875 47.265625 
Q 14.109375 46.140625 10.015625 43.890625 
L 10.015625 52.203125 
Q 14.9375 54.109375 19.578125 55.046875 
Q 24.21875 56 28.609375 56 
Q 40.484375 56 46.34375 49.84375 
Q 52.203125 43.703125 52.203125 31.203125 
z
" id="DejaVuSans-61"/>
      <path d="M 41.109375 46.296875 
Q 39.59375 47.171875 37.8125 47.578125 
Q 36.03125 48 33.890625 48 
Q 26.265625 48 22.1875 43.046875 
Q 18.109375 38.09375 18.109375 28.8125 
L 18.109375 0 
L 9.078125 0 
L 9.078125 54.6875 
L 18.109375 54.6875 
L 18.109375 46.1875 
Q 20.953125 51.171875 25.484375 53.578125 
Q 30.03125 56 36.53125 56 
Q 37.453125 56 38.578125 55.875 
Q 39.703125 55.765625 41.0625 55.515625 
z
" id="DejaVuSans-72"/>
      <path d="M 52 44.1875 
Q 55.375 50.25 60.0625 53.125 
Q 64.75 56 71.09375 56 
Q 79.640625 56 84.28125 50.015625 
Q 88.921875 44.046875 88.921875 33.015625 
L 88.921875 0 
L 79.890625 0 
L 79.890625 32.71875 
Q 79.890625 40.578125 77.09375 44.375 
Q 74.3125 48.1875 68.609375 48.1875 
Q 61.625 48.1875 57.5625 43.546875 
Q 53.515625 38.921875 53.515625 30.90625 
L 53.515625 0 
L 44.484375 0 
L 44.484375 32.71875 
Q 44.484375 40.625 41.703125 44.40625 
Q 38.921875 48.1875 33.109375 48.1875 
Q 26.21875 48.1875 22.15625 43.53125 
Q 18.109375 38.875 18.109375 30.90625 
L 18.109375 0 
L 9.078125 0 
L 9.078125 54.6875 
L 18.109375 54.6875 
L 18.109375 46.1875 
Q 21.1875 51.21875 25.484375 53.609375 
Q 29.78125 56 35.6875 56 
Q 41.65625 56 45.828125 52.96875 
Q 50 49.953125 52 44.1875 
z
" id="DejaVuSans-6d"/>
      <path d="M 56.203125 29.59375 
L 56.203125 25.203125 
L 14.890625 25.203125 
Q 15.484375 15.921875 20.484375 11.0625 
Q 25.484375 6.203125 34.421875 6.203125 
Q 39.59375 6.203125 44.453125 7.46875 
Q 49.3125 8.734375 54.109375 11.28125 
L 54.109375 2.78125 
Q 49.265625 0.734375 44.1875 -0.34375 
Q 39.109375 -1.421875 33.890625 -1.421875 
Q 20.796875 -1.421875 13.15625 6.1875 
Q 5.515625 13.8125 5.515625 26.8125 
Q 5.515625 40.234375 12.765625 48.109375 
Q 20.015625 56 32.328125 56 
Q 43.359375 56 49.78125 48.890625 
Q 56.203125 41.796875 56.203125 29.59375 
z
M 47.21875 32.234375 
Q 47.125 39.59375 43.09375 43.984375 
Q 39.0625 48.390625 32.421875 48.390625 
Q 24.90625 48.390625 20.390625 44.140625 
Q 15.875 39.890625 15.1875 32.171875 
z
" id="DejaVuSans-65"/>
      <path d="M 18.3125 70.21875 
L 18.3125 54.6875 
L 36.8125 54.6875 
L 36.8125 47.703125 
L 18.3125 47.703125 
L 18.3125 18.015625 
Q 18.3125 11.328125 20.140625 9.421875 
Q 21.96875 7.515625 27.59375 7.515625 
L 36.8125 7.515625 
L 36.8125 0 
L 27.59375 0 
Q 17.1875 0 13.234375 3.875 
Q 9.28125 7.765625 9.28125 18.015625 
L 9.28125 47.703125 
L 2.6875 47.703125 
L 2.6875 54.6875 
L 9.28125 54.6875 
L 9.28125 70.21875 
z
" id="DejaVuSans-74"/>
      <path id="DejaVuSans-20"/>
      <path d="M 44.28125 53.078125 
L 44.28125 44.578125 
Q 40.484375 46.53125 36.375 47.5 
Q 32.28125 48.484375 27.875 48.484375 
Q 21.1875 48.484375 17.84375 46.4375 
Q 14.5 44.390625 14.5 40.28125 
Q 14.5 37.15625 16.890625 35.375 
Q 19.28125 33.59375 26.515625 31.984375 
L 29.59375 31.296875 
Q 39.15625 29.25 43.1875 25.515625 
Q 47.21875 21.78125 47.21875 15.09375 
Q 47.21875 7.46875 41.1875 3.015625 
Q 35.15625 -1.421875 24.609375 -1.421875 
Q 20.21875 -1.421875 15.453125 -0.5625 
Q 10.6875 0.296875 5.421875 2 
L 5.421875 11.28125 
Q 10.40625 8.6875 15.234375 7.390625 
Q 20.0625 6.109375 24.8125 6.109375 
Q 31.15625 6.109375 34.5625 8.28125 
Q 37.984375 10.453125 37.984375 14.40625 
Q 37.984375 18.0625 35.515625 20.015625 
Q 33.0625 21.96875 24.703125 23.78125 
L 21.578125 24.515625 
Q 13.234375 26.265625 9.515625 29.90625 
Q 5.8125 33.546875 5.8125 39.890625 
Q 5.8125 47.609375 11.28125 51.796875 
Q 16.75 56 26.8125 56 
Q 31.78125 56 36.171875 55.265625 
Q 40.578125 54.546875 44.28125 53.078125 
z
" id="DejaVuSans-73"/>
     </defs>
     <g transform="translate(131.794531 184.798438)scale(0.1 -0.1)">
      <use xlink:href="#DejaVuSans-50"/>
      <use x="60.240234" xlink:href="#DejaVuSans-61"/>
      <use x="121.519531" xlink:href="#DejaVuSans-72"/>
      <use x="162.632812" xlink:href="#DejaVuSans-61"/>
      <use x="223.912109" xlink:href="#DejaVuSans-6d"/>
      <use x="321.324219" xlink:href="#DejaVuSans-65"/>
      <use x="382.847656" xlink:href="#DejaVuSans-74"/>
      <use x="422.056641" xlink:href="#DejaVuSans-65"/>
      <use x="483.580078" xlink:href="#DejaVuSans-72"/>
      <use x="524.693359" xlink:href="#DejaVuSans-20"/>
      <use x="556.480469" xlink:href="#DejaVuSans-73"/>
      <use x="608.580078" xlink:href="#DejaVuSans-65"/>
      <use x="670.103516" xlink:href="#DejaVuSans-74"/>
      <use x="709.3125" xlink:href="#DejaVuSans-73"/>
     </g>
    </g>
   </g>
   <g id="matplotlib.axis_2">
    <g id="ytick_1">
     <g id="line2d_8">
      <defs>
       <path d="M 0 0 
L -3.5 0 
" id="md4c4397022" style="stroke:#000000;stroke-width:0.8;"/>
      </defs>
      <g>
       <use style="stroke:#000000;stroke-width:0.8;" x="48.982813" xlink:href="#md4c4397022" y="163.379026"/>
      </g>
     </g>
     <g id="text_2">
      <!-- −20 -->
      <defs>
       <path d="M 10.59375 35.5 
L 73.1875 35.5 
L 73.1875 27.203125 
L 10.59375 27.203125 
z
" id="DejaVuSans-2212"/>
       <path d="M 19.1875 8.296875 
L 53.609375 8.296875 
L 53.609375 0 
L 7.328125 0 
L 7.328125 8.296875 
Q 12.9375 14.109375 22.625 23.890625 
Q 32.328125 33.6875 34.8125 36.53125 
Q 39.546875 41.84375 41.421875 45.53125 
Q 43.3125 49.21875 43.3125 52.78125 
Q 43.3125 58.59375 39.234375 62.25 
Q 35.15625 65.921875 28.609375 65.921875 
Q 23.96875 65.921875 18.8125 64.3125 
Q 13.671875 62.703125 7.8125 59.421875 
L 7.8125 69.390625 
Q 13.765625 71.78125 18.9375 73 
Q 24.125 74.21875 28.421875 74.21875 
Q 39.75 74.21875 46.484375 68.546875 
Q 53.21875 62.890625 53.21875 53.421875 
Q 53.21875 48.921875 51.53125 44.890625 
Q 49.859375 40.875 45.40625 35.40625 
Q 44.1875 33.984375 37.640625 27.21875 
Q 31.109375 20.453125 19.1875 8.296875 
z
" id="DejaVuSans-32"/>
       <path d="M 31.78125 66.40625 
Q 24.171875 66.40625 20.328125 58.90625 
Q 16.5 51.421875 16.5 36.375 
Q 16.5 21.390625 20.328125 13.890625 
Q 24.171875 6.390625 31.78125 6.390625 
Q 39.453125 6.390625 43.28125 13.890625 
Q 47.125 21.390625 47.125 36.375 
Q 47.125 51.421875 43.28125 58.90625 
Q 39.453125 66.40625 31.78125 66.40625 
z
M 31.78125 74.21875 
Q 44.046875 74.21875 50.515625 64.515625 
Q 56.984375 54.828125 56.984375 36.375 
Q 56.984375 17.96875 50.515625 8.265625 
Q 44.046875 -1.421875 31.78125 -1.421875 
Q 19.53125 -1.421875 13.0625 8.265625 
Q 6.59375 17.96875 6.59375 36.375 
Q 6.59375 54.828125 13.0625 64.515625 
Q 19.53125 74.21875 31.78125 74.21875 
z
" id="DejaVuSans-30"/>
      </defs>
      <g transform="translate(20.878125 167.178245)scale(0.1 -0.1)">
       <use xlink:href="#DejaVuSans-2212"/>
       <use x="83.789062" xlink:href="#DejaVuSans-32"/>
       <use x="147.412109" xlink:href="#DejaVuSans-30"/>
      </g>
     </g>
    </g>
    <g id="ytick_2">
     <g id="line2d_9">
      <g>
       <use style="stroke:#000000;stroke-width:0.8;" x="48.982813" xlink:href="#md4c4397022" y="137.013151"/>
      </g>
     </g>
     <g id="text_3">
      <!-- 0 -->
      <g transform="translate(35.620312 140.81237)scale(0.1 -0.1)">
       <use xlink:href="#DejaVuSans-30"/>
      </g>
     </g>
    </g>
    <g id="ytick_3">
     <g id="line2d_10">
      <g>
       <use style="stroke:#000000;stroke-width:0.8;" x="48.982813" xlink:href="#md4c4397022" y="110.647276"/>
      </g>
     </g>
     <g id="text_4">
      <!-- 20 -->
      <g transform="translate(29.257812 114.446494)scale(0.1 -0.1)">
       <use xlink:href="#DejaVuSans-32"/>
       <use x="63.623047" xlink:href="#DejaVuSans-30"/>
      </g>
     </g>
    </g>
    <g id="ytick_4">
     <g id="line2d_11">
      <g>
       <use style="stroke:#000000;stroke-width:0.8;" x="48.982813" xlink:href="#md4c4397022" y="84.2814"/>
      </g>
     </g>
     <g id="text_5">
      <!-- 40 -->
      <defs>
       <path d="M 37.796875 64.3125 
L 12.890625 25.390625 
L 37.796875 25.390625 
z
M 35.203125 72.90625 
L 47.609375 72.90625 
L 47.609375 25.390625 
L 58.015625 25.390625 
L 58.015625 17.1875 
L 47.609375 17.1875 
L 47.609375 0 
L 37.796875 0 
L 37.796875 17.1875 
L 4.890625 17.1875 
L 4.890625 26.703125 
z
" id="DejaVuSans-34"/>
      </defs>
      <g transform="translate(29.257812 88.080619)scale(0.1 -0.1)">
       <use xlink:href="#DejaVuSans-34"/>
       <use x="63.623047" xlink:href="#DejaVuSans-30"/>
      </g>
     </g>
    </g>
    <g id="ytick_5">
     <g id="line2d_12">
      <g>
       <use style="stroke:#000000;stroke-width:0.8;" x="48.982813" xlink:href="#md4c4397022" y="57.915525"/>
      </g>
     </g>
     <g id="text_6">
      <!-- 60 -->
      <defs>
       <path d="M 33.015625 40.375 
Q 26.375 40.375 22.484375 35.828125 
Q 18.609375 31.296875 18.609375 23.390625 
Q 18.609375 15.53125 22.484375 10.953125 
Q 26.375 6.390625 33.015625 6.390625 
Q 39.65625 6.390625 43.53125 10.953125 
Q 47.40625 15.53125 47.40625 23.390625 
Q 47.40625 31.296875 43.53125 35.828125 
Q 39.65625 40.375 33.015625 40.375 
z
M 52.59375 71.296875 
L 52.59375 62.3125 
Q 48.875 64.0625 45.09375 64.984375 
Q 41.3125 65.921875 37.59375 65.921875 
Q 27.828125 65.921875 22.671875 59.328125 
Q 17.53125 52.734375 16.796875 39.40625 
Q 19.671875 43.65625 24.015625 45.921875 
Q 28.375 48.1875 33.59375 48.1875 
Q 44.578125 48.1875 50.953125 41.515625 
Q 57.328125 34.859375 57.328125 23.390625 
Q 57.328125 12.15625 50.6875 5.359375 
Q 44.046875 -1.421875 33.015625 -1.421875 
Q 20.359375 -1.421875 13.671875 8.265625 
Q 6.984375 17.96875 6.984375 36.375 
Q 6.984375 53.65625 15.1875 63.9375 
Q 23.390625 74.21875 37.203125 74.21875 
Q 40.921875 74.21875 44.703125 73.484375 
Q 48.484375 72.75 52.59375 71.296875 
z
" id="DejaVuSans-36"/>
      </defs>
      <g transform="translate(29.257812 61.714744)scale(0.1 -0.1)">
       <use xlink:href="#DejaVuSans-36"/>
       <use x="63.623047" xlink:href="#DejaVuSans-30"/>
      </g>
     </g>
    </g>
    <g id="ytick_6">
     <g id="line2d_13">
      <g>
       <use style="stroke:#000000;stroke-width:0.8;" x="48.982813" xlink:href="#md4c4397022" y="31.54965"/>
      </g>
     </g>
     <g id="text_7">
      <!-- 80 -->
      <defs>
       <path d="M 31.78125 34.625 
Q 24.75 34.625 20.71875 30.859375 
Q 16.703125 27.09375 16.703125 20.515625 
Q 16.703125 13.921875 20.71875 10.15625 
Q 24.75 6.390625 31.78125 6.390625 
Q 38.8125 6.390625 42.859375 10.171875 
Q 46.921875 13.96875 46.921875 20.515625 
Q 46.921875 27.09375 42.890625 30.859375 
Q 38.875 34.625 31.78125 34.625 
z
M 21.921875 38.8125 
Q 15.578125 40.375 12.03125 44.71875 
Q 8.5 49.078125 8.5 55.328125 
Q 8.5 64.0625 14.71875 69.140625 
Q 20.953125 74.21875 31.78125 74.21875 
Q 42.671875 74.21875 48.875 69.140625 
Q 55.078125 64.0625 55.078125 55.328125 
Q 55.078125 49.078125 51.53125 44.71875 
Q 48 40.375 41.703125 38.8125 
Q 48.828125 37.15625 52.796875 32.3125 
Q 56.78125 27.484375 56.78125 20.515625 
Q 56.78125 9.90625 50.3125 4.234375 
Q 43.84375 -1.421875 31.78125 -1.421875 
Q 19.734375 -1.421875 13.25 4.234375 
Q 6.78125 9.90625 6.78125 20.515625 
Q 6.78125 27.484375 10.78125 32.3125 
Q 14.796875 37.15625 21.921875 38.8125 
z
M 18.3125 54.390625 
Q 18.3125 48.734375 21.84375 45.5625 
Q 25.390625 42.390625 31.78125 42.390625 
Q 38.140625 42.390625 41.71875 45.5625 
Q 45.3125 48.734375 45.3125 54.390625 
Q 45.3125 60.0625 41.71875 63.234375 
Q 38.140625 66.40625 31.78125 66.40625 
Q 25.390625 66.40625 21.84375 63.234375 
Q 18.3125 60.0625 18.3125 54.390625 
z
" id="DejaVuSans-38"/>
      </defs>
      <g transform="translate(29.257812 35.348868)scale(0.1 -0.1)">
       <use xlink:href="#DejaVuSans-38"/>
       <use x="63.623047" xlink:href="#DejaVuSans-30"/>
      </g>
     </g>
    </g>
    <g id="text_8">
     <!-- Bias [m] -->
     <defs>
      <path d="M 19.671875 34.8125 
L 19.671875 8.109375 
L 35.5 8.109375 
Q 43.453125 8.109375 47.28125 11.40625 
Q 51.125 14.703125 51.125 21.484375 
Q 51.125 28.328125 47.28125 31.5625 
Q 43.453125 34.8125 35.5 34.8125 
z
M 19.671875 64.796875 
L 19.671875 42.828125 
L 34.28125 42.828125 
Q 41.5 42.828125 45.03125 45.53125 
Q 48.578125 48.25 48.578125 53.8125 
Q 48.578125 59.328125 45.03125 62.0625 
Q 41.5 64.796875 34.28125 64.796875 
z
M 9.8125 72.90625 
L 35.015625 72.90625 
Q 46.296875 72.90625 52.390625 68.21875 
Q 58.5 63.53125 58.5 54.890625 
Q 58.5 48.1875 55.375 44.234375 
Q 52.25 40.28125 46.1875 39.3125 
Q 53.46875 37.75 57.5 32.78125 
Q 61.53125 27.828125 61.53125 20.40625 
Q 61.53125 10.640625 54.890625 5.3125 
Q 48.25 0 35.984375 0 
L 9.8125 0 
z
" id="DejaVuSans-42"/>
      <path d="M 9.421875 54.6875 
L 18.40625 54.6875 
L 18.40625 0 
L 9.421875 0 
z
M 9.421875 75.984375 
L 18.40625 75.984375 
L 18.40625 64.59375 
L 9.421875 64.59375 
z
" id="DejaVuSans-69"/>
      <path d="M 8.59375 75.984375 
L 29.296875 75.984375 
L 29.296875 69 
L 17.578125 69 
L 17.578125 -6.203125 
L 29.296875 -6.203125 
L 29.296875 -13.1875 
L 8.59375 -13.1875 
z
" id="DejaVuSans-5b"/>
      <path d="M 30.421875 75.984375 
L 30.421875 -13.1875 
L 9.71875 -13.1875 
L 9.71875 -6.203125 
L 21.390625 -6.203125 
L 21.390625 69 
L 9.71875 69 
L 9.71875 75.984375 
z
" id="DejaVuSans-5d"/>
     </defs>
     <g transform="translate(14.798437 109.299219)rotate(-90)scale(0.1 -0.1)">
      <use xlink:href="#DejaVuSans-42"/>
      <use x="68.603516" xlink:href="#DejaVuSans-69"/>
      <use x="96.386719" xlink:href="#DejaVuSans-61"/>
      <use x="157.666016" xlink:href="#DejaVuSans-73"/>
      <use x="209.765625" xlink:href="#DejaVuSans-20"/>
      <use x="241.552734" xlink:href="#DejaVuSans-5b"/>
      <use x="280.566406" xlink:href="#DejaVuSans-6d"/>
      <use x="377.978516" xlink:href="#DejaVuSans-5d"/>
     </g>
    </g>
   </g>
   <g id="LineCollection_1">
    <path clip-path="url(#p612c88d3c9)" d="M 59.972017 150.196088 
L 279.756108 150.196088 
" style="fill:none;stroke:#2ca02c;stroke-dasharray:1.5,2.475;stroke-dashoffset:0;stroke-width:1.5;"/>
    <path clip-path="url(#p612c88d3c9)" d="M 59.972017 123.830213 
L 279.756108 123.830213 
" style="fill:none;stroke:#2ca02c;stroke-dasharray:1.5,2.475;stroke-dashoffset:0;stroke-width:1.5;"/>
   </g>
   <g id="line2d_14">
    <path clip-path="url(#p612c88d3c9)" d="M 59.972017 37.481781 
L 60.704631 29.811179 
L 61.437244 18.540166 
L 62.169858 36.621618 
L 62.902472 28.936617 
L 63.635085 17.768182 
L 64.367699 40.14966 
L 65.100313 32.585639 
L 65.832926 21.102122 
L 66.56554 63.416697 
L 67.298153 56.739051 
L 68.030767 46.927064 
L 68.763381 62.667883 
L 69.495994 55.9777 
L 70.228608 46.255013 
L 70.961222 65.739221 
L 71.693835 59.154358 
L 72.426449 49.157376 
L 73.159063 77.002085 
L 73.891676 70.844575 
L 74.62429 61.796864 
L 75.356903 76.311597 
L 76.089517 70.142527 
L 76.822131 61.17716 
L 77.554744 79.143702 
L 78.287358 73.071749 
L 79.019972 63.853452 
L 79.752585 85.994353 
L 80.485199 80.181125 
L 81.217813 71.639294 
L 81.950426 85.342473 
L 82.68304 79.51833 
L 83.415653 71.054239 
L 84.148267 88.016228 
L 84.880881 82.283772 
L 85.613494 73.580894 
L 86.346108 92.621584 
L 87.078722 87.062088 
L 87.811335 78.893087 
L 88.543949 91.998156 
L 89.276562 86.428223 
L 90.009176 78.333568 
L 90.74179 94.555209 
L 91.474403 89.07296 
L 92.207017 80.749941 
L 92.939631 97.82112 
L 93.672244 92.460696 
L 94.404858 84.584207 
L 95.137472 97.220016 
L 95.870085 91.849528 
L 96.602699 84.044723 
L 97.335312 99.685507 
L 98.067926 94.399564 
L 98.80054 86.374571 
L 99.533153 102.071742 
L 100.265767 96.874059 
L 100.998381 89.236697 
L 101.730994 101.488886 
L 102.463608 96.281446 
L 103.196222 88.713592 
L 103.928835 103.879526 
L 104.661449 98.754063 
L 105.394062 90.972706 
L 106.126676 105.649345 
L 106.85929 100.588635 
L 107.591903 93.15254 
L 108.324517 105.08185 
L 109.057131 100.011639 
L 109.789744 92.64322 
L 110.522358 107.409489 
L 111.254972 102.419096 
L 111.987585 94.8428 
L 112.720199 108.726676 
L 113.452812 103.783787 
L 114.185426 96.520813 
L 114.91804 108.172393 
L 115.650653 103.220224 
L 116.383267 96.023351 
L 117.115881 110.445841 
L 117.848494 105.571631 
L 118.581108 98.171722 
L 119.313722 111.418684 
L 120.046335 106.578862 
L 120.778949 99.467333 
L 121.511562 110.875959 
L 122.244176 106.02705 
L 122.97679 98.980245 
L 123.709403 113.102002 
L 124.442017 108.329428 
L 125.174631 101.083818 
L 125.907244 113.805513 
L 126.639858 109.057074 
L 127.372472 102.079822 
L 128.105085 113.273035 
L 128.837699 108.515681 
L 129.570312 101.60193 
L 130.302926 115.457047 
L 131.03554 110.774586 
L 131.768153 103.665785 
L 132.500767 115.945143 
L 133.233381 111.278624 
L 133.965994 104.421741 
L 134.698608 115.421852 
L 135.431222 110.746571 
L 136.163835 103.952093 
L 136.896449 117.568186 
L 137.629062 112.966506 
L 138.361676 105.980344 
L 139.09429 117.880802 
L 139.826903 113.288391 
L 140.559517 106.540403 
L 141.292131 117.36582 
L 142.024744 112.764788 
L 142.757358 106.078214 
L 143.489972 119.478069 
L 144.222585 114.949468 
L 144.955199 108.074254 
L 145.687812 121.265097 
L 146.420426 116.802259 
L 147.15304 110.244662 
L 147.885653 120.764645 
L 148.618267 116.293429 
L 149.350881 109.795513 
L 150.083494 122.817298 
L 150.816108 118.416469 
L 151.548722 111.735235 
L 152.281335 124.146795 
L 153.013949 119.794286 
L 153.746562 113.398806 
L 154.479176 123.658716 
L 155.21179 119.298036 
L 155.944403 112.960761 
L 156.677017 125.660623 
L 157.409631 121.36859 
L 158.142244 114.85253 
L 158.874858 127.78251 
L 159.607472 123.5692 
L 160.340085 117.378255 
L 161.072699 127.31004 
L 161.805312 123.08882 
L 162.537926 116.95422 
L 163.27054 129.247923 
L 164.003153 125.093156 
L 164.735767 118.785487 
L 165.468381 132.585792 
L 166.200994 128.556383 
L 166.933608 122.635657 
L 167.666222 132.133944 
L 168.398835 128.09697 
L 169.131449 122.230129 
L 169.864062 133.987244 
L 170.596676 130.013822 
L 171.32929 123.981466 
L 172.061903 136.35431 
L 172.794517 132.469184 
L 173.527131 126.760464 
L 174.259744 135.918642 
L 174.992358 132.026222 
L 175.724972 126.369458 
L 176.457585 137.70558 
L 177.190199 133.874436 
L 177.922812 128.058084 
L 178.655426 142.028048 
L 179.38804 138.360149 
L 180.120653 132.970618 
L 180.853267 141.616739 
L 181.585881 137.941954 
L 182.318494 132.601474 
L 183.051108 143.303765 
L 183.783722 139.686829 
L 184.516335 134.195685 
L 185.248949 146.209548 
L 185.981562 142.701743 
L 186.714176 137.547452 
L 187.44679 145.816192 
L 188.179403 142.301801 
L 188.912017 137.19442 
L 189.644631 147.429583 
L 190.377244 143.970518 
L 191.109858 138.719047 
L 191.842472 149.490234 
L 192.575085 146.108035 
L 193.307699 141.138306 
L 194.040312 149.110963 
L 194.772926 145.722414 
L 195.50554 140.797915 
L 196.238153 150.666582 
L 196.970767 147.331377 
L 197.703381 142.267949 
L 198.435994 152.172194 
L 199.168608 148.892678 
L 199.901222 144.073829 
L 200.633835 151.804438 
L 201.366449 148.518765 
L 202.099062 143.743772 
L 202.831676 153.312829 
L 203.56429 150.07888 
L 204.296903 145.169177 
L 205.029517 154.429509 
L 205.762131 151.236418 
L 206.494744 146.544559 
L 207.227358 154.071444 
L 207.959972 150.872358 
L 208.692585 146.2232 
L 209.425199 155.540085 
L 210.157812 152.39136 
L 210.890426 147.611041 
L 211.62304 156.371174 
L 212.355653 153.252422 
L 213.088267 148.669795 
L 213.820881 156.021445 
L 214.553494 152.896838 
L 215.286108 148.355918 
L 216.018722 157.455894 
L 216.751335 154.380476 
L 217.483949 149.711448 
L 218.216562 158.069716 
L 218.949176 155.015995 
L 219.68179 150.528924 
L 220.414403 157.72728 
L 221.147017 154.667826 
L 221.879631 150.221591 
L 222.612244 159.131818 
L 223.344858 156.120527 
L 224.077472 151.548857 
L 224.810085 20.884381 
L 226.275312 20.884381 
L 227.007926 48.967822 
L 228.473153 48.967822 
L 229.205767 63.678662 
L 230.670994 63.678662 
L 231.403608 73.415877 
L 232.868835 73.415877 
L 233.601449 80.592126 
L 235.066676 80.592126 
L 235.79929 86.222408 
L 237.264517 86.222408 
L 237.997131 90.825163 
L 239.462358 90.825163 
L 240.194972 94.699145 
L 241.660199 94.699145 
L 242.392812 98.031411 
L 243.85804 98.031411 
L 244.590653 100.946433 
L 246.055881 100.946433 
L 246.788494 103.530994 
L 248.253722 103.530994 
L 248.986335 105.847878 
L 250.451562 105.847878 
L 251.184176 107.943891 
L 252.649403 107.943891 
L 253.382017 111.608551 
L 254.847244 111.608551 
L 255.579858 114.728977 
L 257.045085 114.728977 
L 257.777699 118.665886 
L 259.242926 118.665886 
L 259.97554 123.867086 
L 261.440767 123.867086 
L 262.173381 127.947799 
L 263.638608 127.947799 
L 264.371222 134.091566 
L 265.836449 134.091566 
L 266.569062 138.619473 
L 268.03429 138.619473 
L 268.766903 142.171941 
L 270.232131 142.171941 
L 270.964744 145.076083 
L 272.429972 145.076083 
L 273.162585 147.5204 
L 274.627812 147.5204 
L 275.360426 149.622918 
L 276.825653 149.622918 
L 277.558267 151.462173 
L 279.023494 151.462173 
L 279.023494 151.462173 
" style="fill:none;stroke:#1f77b4;stroke-linecap:square;stroke-width:1.5;"/>
   </g>
   <g id="line2d_15">
    <path clip-path="url(#p612c88d3c9)" d="M 163.27054 129.247923 
L 164.003153 125.093156 
M 165.468381 132.585792 
L 166.200994 128.556383 
M 167.666222 132.133944 
L 168.398835 128.09697 
M 169.864062 133.987244 
L 170.596676 130.013822 
L 171.32929 123.981466 
L 172.061903 136.35431 
L 172.794517 132.469184 
L 173.527131 126.760464 
L 174.259744 135.918642 
L 174.992358 132.026222 
L 175.724972 126.369458 
L 176.457585 137.70558 
L 177.190199 133.874436 
L 177.922812 128.058084 
L 178.655426 142.028048 
L 179.38804 138.360149 
L 180.120653 132.970618 
L 180.853267 141.616739 
L 181.585881 137.941954 
L 182.318494 132.601474 
L 183.051108 143.303765 
L 183.783722 139.686829 
L 184.516335 134.195685 
L 185.248949 146.209548 
L 185.981562 142.701743 
L 186.714176 137.547452 
L 187.44679 145.816192 
L 188.179403 142.301801 
L 188.912017 137.19442 
L 189.644631 147.429583 
L 190.377244 143.970518 
L 191.109858 138.719047 
L 191.842472 149.490234 
L 192.575085 146.108035 
L 193.307699 141.138306 
L 194.040312 149.110963 
L 194.772926 145.722414 
L 195.50554 140.797915 
M 196.970767 147.331377 
L 197.703381 142.267949 
M 199.168608 148.892678 
L 199.901222 144.073829 
M 201.366449 148.518765 
L 202.099062 143.743772 
M 203.56429 150.07888 
L 204.296903 145.169177 
M 259.97554 123.867086 
L 261.440767 123.867086 
L 262.173381 127.947799 
L 263.638608 127.947799 
L 264.371222 134.091566 
L 265.836449 134.091566 
L 266.569062 138.619473 
L 268.03429 138.619473 
L 268.766903 142.171941 
L 270.232131 142.171941 
L 270.964744 145.076083 
L 272.429972 145.076083 
L 273.162585 147.5204 
L 274.627812 147.5204 
L 275.360426 149.622918 
L 276.825653 149.622918 
L 276.825653 149.622918 
" style="fill:none;stroke:#2ca02c;stroke-linecap:square;stroke-width:1.5;"/>
   </g>
   <g id="patch_3">
    <path d="M 48.982813 166.2 
L 48.982813 10.7 
" style="fill:none;stroke:#000000;stroke-linecap:square;stroke-linejoin:miter;stroke-width:0.8;"/>
   </g>
   <g id="patch_4">
    <path d="M 290.745312 166.2 
L 290.745312 10.7 
" style="fill:none;stroke:#000000;stroke-linecap:square;stroke-linejoin:miter;stroke-width:0.8;"/>
   </g>
   <g id="patch_5">
    <path d="M 48.982813 166.2 
L 290.745312 166.2 
" style="fill:none;stroke:#000000;stroke-linecap:square;stroke-linejoin:miter;stroke-width:0.8;"/>
   </g>
   <g id="patch_6">
    <path d="M 48.982813 10.7 
L 290.745312 10.7 
" style="fill:none;stroke:#000000;stroke-linecap:square;stroke-linejoin:miter;stroke-width:0.8;"/>
   </g>
  </g>
  <g id="axes_2">
   <g id="patch_7">
    <path d="M 344.920312 166.2 
L 586.682812 166.2 
L 586.682812 10.7 
L 344.920312 10.7 
z
" style="fill:#ffffff;"/>
   </g>
   <g id="matplotlib.axis_3">
    <g id="xtick_8">
     <g id="line2d_16">
      <g>
       <use style="stroke:#000000;stroke-width:0.8;" x="355.909517" xlink:href="#m08e374342f" y="166.2"/>
      </g>
     </g>
    </g>
    <g id="xtick_9">
     <g id="line2d_17">
      <g>
       <use style="stroke:#000000;stroke-width:0.8;" x="392.66271" xlink:href="#m08e374342f" y="166.2"/>
      </g>
     </g>
    </g>
    <g id="xtick_10">
     <g id="line2d_18">
      <g>
       <use style="stroke:#000000;stroke-width:0.8;" x="429.415902" xlink:href="#m08e374342f" y="166.2"/>
      </g>
     </g>
    </g>
    <g id="xtick_11">
     <g id="line2d_19">
      <g>
       <use style="stroke:#000000;stroke-width:0.8;" x="466.169094" xlink:href="#m08e374342f" y="166.2"/>
      </g>
     </g>
    </g>
    <g id="xtick_12">
     <g id="line2d_20">
      <g>
       <use style="stroke:#000000;stroke-width:0.8;" x="502.922287" xlink:href="#m08e374342f" y="166.2"/>
      </g>
     </g>
    </g>
    <g id="xtick_13">
     <g id="line2d_21">
      <g>
       <use style="stroke:#000000;stroke-width:0.8;" x="539.675479" xlink:href="#m08e374342f" y="166.2"/>
      </g>
     </g>
    </g>
    <g id="xtick_14">
     <g id="line2d_22">
      <g>
       <use style="stroke:#000000;stroke-width:0.8;" x="576.428672" xlink:href="#m08e374342f" y="166.2"/>
      </g>
     </g>
    </g>
    <g id="text_9">
     <!-- Parameter sets -->
     <g transform="translate(427.732031 184.798438)scale(0.1 -0.1)">
      <use xlink:href="#DejaVuSans-50"/>
      <use x="60.240234" xlink:href="#DejaVuSans-61"/>
      <use x="121.519531" xlink:href="#DejaVuSans-72"/>
      <use x="162.632812" xlink:href="#DejaVuSans-61"/>
      <use x="223.912109" xlink:href="#DejaVuSans-6d"/>
      <use x="321.324219" xlink:href="#DejaVuSans-65"/>
      <use x="382.847656" xlink:href="#DejaVuSans-74"/>
      <use x="422.056641" xlink:href="#DejaVuSans-65"/>
      <use x="483.580078" xlink:href="#DejaVuSans-72"/>
      <use x="524.693359" xlink:href="#DejaVuSans-20"/>
      <use x="556.480469" xlink:href="#DejaVuSans-73"/>
      <use x="608.580078" xlink:href="#DejaVuSans-65"/>
      <use x="670.103516" xlink:href="#DejaVuSans-74"/>
      <use x="709.3125" xlink:href="#DejaVuSans-73"/>
     </g>
    </g>
   </g>
   <g id="matplotlib.axis_4">
    <g id="ytick_7">
     <g id="line2d_23">
      <g>
       <use style="stroke:#000000;stroke-width:0.8;" x="344.920312" xlink:href="#md4c4397022" y="161.884354"/>
      </g>
     </g>
     <g id="text_10">
      <!-- 20 -->
      <g transform="translate(325.195312 165.683573)scale(0.1 -0.1)">
       <use xlink:href="#DejaVuSans-32"/>
       <use x="63.623047" xlink:href="#DejaVuSans-30"/>
      </g>
     </g>
    </g>
    <g id="ytick_8">
     <g id="line2d_24">
      <g>
       <use style="stroke:#000000;stroke-width:0.8;" x="344.920312" xlink:href="#md4c4397022" y="125.551342"/>
      </g>
     </g>
     <g id="text_11">
      <!-- 40 -->
      <g transform="translate(325.195312 129.350561)scale(0.1 -0.1)">
       <use xlink:href="#DejaVuSans-34"/>
       <use x="63.623047" xlink:href="#DejaVuSans-30"/>
      </g>
     </g>
    </g>
    <g id="ytick_9">
     <g id="line2d_25">
      <g>
       <use style="stroke:#000000;stroke-width:0.8;" x="344.920312" xlink:href="#md4c4397022" y="89.21833"/>
      </g>
     </g>
     <g id="text_12">
      <!-- 60 -->
      <g transform="translate(325.195312 93.017548)scale(0.1 -0.1)">
       <use xlink:href="#DejaVuSans-36"/>
       <use x="63.623047" xlink:href="#DejaVuSans-30"/>
      </g>
     </g>
    </g>
    <g id="ytick_10">
     <g id="line2d_26">
      <g>
       <use style="stroke:#000000;stroke-width:0.8;" x="344.920312" xlink:href="#md4c4397022" y="52.885317"/>
      </g>
     </g>
     <g id="text_13">
      <!-- 80 -->
      <g transform="translate(325.195312 56.684536)scale(0.1 -0.1)">
       <use xlink:href="#DejaVuSans-38"/>
       <use x="63.623047" xlink:href="#DejaVuSans-30"/>
      </g>
     </g>
    </g>
    <g id="ytick_11">
     <g id="line2d_27">
      <g>
       <use style="stroke:#000000;stroke-width:0.8;" x="344.920312" xlink:href="#md4c4397022" y="16.552305"/>
      </g>
     </g>
     <g id="text_14">
      <!-- 100 -->
      <defs>
       <path d="M 12.40625 8.296875 
L 28.515625 8.296875 
L 28.515625 63.921875 
L 10.984375 60.40625 
L 10.984375 69.390625 
L 28.421875 72.90625 
L 38.28125 72.90625 
L 38.28125 8.296875 
L 54.390625 8.296875 
L 54.390625 0 
L 12.40625 0 
z
" id="DejaVuSans-31"/>
      </defs>
      <g transform="translate(318.832812 20.351524)scale(0.1 -0.1)">
       <use xlink:href="#DejaVuSans-31"/>
       <use x="63.623047" xlink:href="#DejaVuSans-30"/>
       <use x="127.246094" xlink:href="#DejaVuSans-30"/>
      </g>
     </g>
    </g>
    <g id="text_15">
     <!-- MAD [m] -->
     <defs>
      <path d="M 9.8125 72.90625 
L 24.515625 72.90625 
L 43.109375 23.296875 
L 61.8125 72.90625 
L 76.515625 72.90625 
L 76.515625 0 
L 66.890625 0 
L 66.890625 64.015625 
L 48.09375 14.015625 
L 38.1875 14.015625 
L 19.390625 64.015625 
L 19.390625 0 
L 9.8125 0 
z
" id="DejaVuSans-4d"/>
      <path d="M 34.1875 63.1875 
L 20.796875 26.90625 
L 47.609375 26.90625 
z
M 28.609375 72.90625 
L 39.796875 72.90625 
L 67.578125 0 
L 57.328125 0 
L 50.6875 18.703125 
L 17.828125 18.703125 
L 11.1875 0 
L 0.78125 0 
z
" id="DejaVuSans-41"/>
      <path d="M 19.671875 64.796875 
L 19.671875 8.109375 
L 31.59375 8.109375 
Q 46.6875 8.109375 53.6875 14.9375 
Q 60.6875 21.78125 60.6875 36.53125 
Q 60.6875 51.171875 53.6875 57.984375 
Q 46.6875 64.796875 31.59375 64.796875 
z
M 9.8125 72.90625 
L 30.078125 72.90625 
Q 51.265625 72.90625 61.171875 64.09375 
Q 71.09375 55.28125 71.09375 36.53125 
Q 71.09375 17.671875 61.125 8.828125 
Q 51.171875 0 30.078125 0 
L 9.8125 0 
z
" id="DejaVuSans-44"/>
     </defs>
     <g transform="translate(312.753125 110.395313)rotate(-90)scale(0.1 -0.1)">
      <use xlink:href="#DejaVuSans-4d"/>
      <use x="86.279297" xlink:href="#DejaVuSans-41"/>
      <use x="154.6875" xlink:href="#DejaVuSans-44"/>
      <use x="231.689453" xlink:href="#DejaVuSans-20"/>
      <use x="263.476562" xlink:href="#DejaVuSans-5b"/>
      <use x="302.490234" xlink:href="#DejaVuSans-6d"/>
      <use x="399.902344" xlink:href="#DejaVuSans-5d"/>
     </g>
    </g>
   </g>
   <g id="line2d_28">
    <path clip-path="url(#p75422ac93d)" d="M 355.909517 57.267823 
L 356.644581 44.085199 
L 357.379645 19.316599 
L 358.114709 56.165108 
L 358.849772 42.889572 
L 359.584836 17.768182 
L 360.3199 60.55284 
L 361.054964 47.745348 
L 361.790028 24.24142 
L 362.525092 89.773698 
L 363.260156 77.092162 
L 363.995219 52.637355 
L 364.730283 88.865586 
L 365.465347 76.065775 
L 366.200411 51.171733 
L 366.935475 92.436 
L 367.670539 80.335189 
L 368.405602 57.42178 
L 369.140666 105.664767 
L 369.87573 93.476584 
L 370.610794 69.2537 
L 371.345858 104.896989 
L 372.080922 92.544711 
L 372.815986 67.825516 
L 373.551049 108.065357 
L 374.286113 96.382182 
L 375.021177 73.965385 
L 375.756241 115.684909 
L 376.491305 103.749123 
L 377.226369 79.891139 
L 377.961433 114.996545 
L 378.696496 102.877969 
L 379.43156 78.503272 
L 380.166624 117.846468 
L 380.901688 106.470537 
L 381.636752 84.525917 
L 382.371816 122.75599 
L 383.106879 111.036345 
L 383.841943 87.450679 
L 384.577007 122.129453 
L 385.312071 110.20698 
L 386.047135 86.098656 
L 386.782199 124.758995 
L 387.517263 113.684407 
L 388.252326 92.055356 
L 388.98739 128.136393 
L 389.722454 116.614683 
L 390.457518 93.20741 
L 391.192582 127.549459 
L 391.927646 115.825195 
L 392.66271 91.869816 
L 393.397773 129.961638 
L 394.132837 119.187547 
L 394.867901 97.739139 
L 395.602965 132.345265 
L 396.338029 121.023685 
L 397.073093 97.782664 
L 397.808156 131.812267 
L 398.54322 120.261552 
L 399.278284 96.464179 
L 400.013348 134.030228 
L 400.748412 123.537809 
L 401.483476 102.208709 
L 402.21854 135.73982 
L 402.953603 124.634345 
L 403.688667 101.523315 
L 404.423731 135.247795 
L 405.158795 123.904964 
L 405.893859 100.236385 
L 406.628923 137.332888 
L 407.363986 127.079406 
L 408.09905 105.845667 
L 408.834114 138.596571 
L 409.569178 127.653379 
L 410.304242 104.650712 
L 411.039306 138.131831 
L 411.77437 126.933604 
L 412.509433 103.383819 
L 413.244497 140.037475 
L 413.979561 130.031191 
L 414.714625 108.887086 
L 415.449689 140.96329 
L 416.184753 130.220466 
L 416.919817 107.319524 
L 417.65488 140.533706 
L 418.389944 129.529089 
L 419.125008 106.078243 
L 419.860072 142.283519 
L 420.595136 132.510814 
L 421.3302 111.508601 
L 422.065263 142.969743 
L 422.800327 132.434153 
L 423.535391 109.615344 
L 424.270455 142.560211 
L 425.005519 131.749805 
L 425.740583 108.396826 
L 426.475647 144.201142 
L 427.21071 134.625156 
L 427.945774 113.760674 
L 428.680838 144.676498 
L 429.415902 134.365373 
L 430.150966 111.616078 
L 430.88603 144.302787 
L 431.621094 133.696556 
L 432.356157 110.416416 
L 433.091221 145.839063 
L 433.826285 136.463439 
L 434.561349 115.729646 
L 435.296413 146.175704 
L 436.031477 136.02975 
L 436.76654 113.405711 
L 437.501604 145.811473 
L 438.236668 135.404352 
L 438.971732 112.223093 
L 439.706796 147.257798 
L 440.44186 138.057716 
L 441.176924 117.481492 
L 441.911987 148.669599 
L 442.647051 138.793163 
L 443.382115 116.459056 
L 444.117179 148.340803 
L 444.852243 138.215529 
L 445.587307 115.315887 
L 446.32237 149.62613 
L 447.057434 140.681136 
L 447.792498 120.453355 
L 448.527562 150.640736 
L 449.262626 140.985901 
L 449.99769 118.948268 
L 450.732754 150.359266 
L 451.467817 140.450799 
L 452.202881 117.839621 
L 452.937945 151.45699 
L 453.673009 142.751391 
L 454.408073 122.851006 
L 455.143137 152.902735 
L 455.878201 143.594964 
L 456.613264 121.956207 
L 457.348328 152.68944 
L 458.083392 143.114779 
L 458.818456 120.889773 
L 459.55352 153.522319 
L 460.288584 145.127019 
L 461.023647 125.667686 
L 461.758711 155.42595 
L 462.493775 146.580987 
L 463.228839 125.644858 
L 463.963903 155.303532 
L 464.698967 146.215059 
L 465.434031 124.670392 
L 466.169094 155.732713 
L 466.904158 147.78803 
L 467.639222 129.023354 
L 468.374286 156.897453 
L 469.10935 148.518134 
L 469.844414 128.302948 
L 470.579478 156.846302 
L 471.314541 148.222693 
L 472.049605 127.398213 
L 472.784669 156.930191 
L 473.519733 149.453909 
L 474.254797 131.33892 
L 474.989861 158.298431 
L 475.724924 150.702855 
L 476.459988 131.649 
L 477.195052 158.33249 
L 477.930116 150.535635 
L 478.66518 130.889199 
L 479.400244 158.125324 
L 480.135308 151.276156 
L 480.870371 134.209281 
L 481.605435 158.862325 
L 482.340499 151.70447 
L 483.075563 133.676821 
L 483.810627 158.961346 
L 484.545691 151.598156 
L 485.280755 133.005858 
L 486.015818 158.543334 
L 486.750882 152.021374 
L 487.485946 135.846456 
L 488.22101 159.004829 
L 488.956074 152.174838 
L 489.691138 135.009129 
L 490.426201 159.131818 
L 491.161265 152.112813 
L 491.896329 134.443942 
L 492.631393 158.546112 
L 493.366457 152.338129 
L 494.101521 136.855375 
L 494.836585 158.877553 
L 495.571648 152.382848 
L 496.306712 135.86189 
L 497.041776 159.037779 
L 497.77684 152.36697 
L 498.511904 135.374542 
L 499.246968 158.28807 
L 499.982031 152.431201 
L 500.717095 137.484566 
L 501.452159 158.526037 
L 502.187223 152.401825 
L 502.922287 136.413355 
L 503.657351 158.7123 
L 504.392415 152.424199 
L 505.127478 135.965063 
L 505.862542 157.861152 
L 506.597606 152.35539 
L 507.33267 137.870763 
L 508.067734 158.017416 
L 508.802798 152.316922 
L 509.537862 136.772892 
L 510.272925 158.228521 
L 511.007989 152.355652 
L 511.743053 136.381833 
L 512.478117 157.304369 
L 513.213181 152.181838 
L 513.948245 138.093212 
L 514.683308 157.391143 
L 515.418372 152.143057 
L 516.153436 136.997323 
L 516.8885 157.609854 
L 517.623564 152.21142 
L 518.358628 136.636887 
L 519.093692 156.662705 
L 519.828755 151.97359 
L 520.563819 138.202231 
L 521.298883 21.882574 
L 522.769011 21.882574 
L 523.504075 55.077306 
L 524.974202 55.077306 
L 525.709266 71.524072 
L 527.179394 71.524072 
L 527.914458 81.897208 
L 529.384585 81.897208 
L 530.119649 89.246343 
L 531.589777 89.246343 
L 532.324841 94.828266 
L 533.794969 94.828266 
L 534.530032 99.264707 
L 536.00016 99.264707 
L 536.735224 102.929391 
L 538.205352 102.929391 
L 538.940415 106.006623 
L 540.410543 106.006623 
L 541.145607 108.636568 
L 542.615735 108.636568 
L 543.350799 110.939085 
L 544.820926 110.939085 
L 545.55599 112.984096 
L 547.026118 112.984096 
L 547.761182 114.812107 
L 549.231309 114.812107 
L 549.966373 117.917608 
L 551.436501 117.917608 
L 552.171565 120.486611 
L 553.641692 120.486611 
L 554.376756 123.581146 
L 555.846884 123.581146 
L 556.581948 127.421103 
L 558.052076 127.421103 
L 558.787139 130.28735 
L 560.257267 130.28735 
L 560.992331 134.303788 
L 562.462459 134.303788 
L 563.197523 136.978926 
L 564.66765 136.978926 
L 565.402714 138.85715 
L 566.872842 138.85715 
L 567.607906 140.22094 
L 569.078033 140.22094 
L 569.813097 141.129355 
L 571.283225 141.129355 
L 572.018289 141.830179 
L 573.488416 141.830179 
L 574.22348 142.35385 
L 575.693608 142.35385 
L 575.693608 142.35385 
" style="fill:none;stroke:#1f77b4;stroke-linecap:square;stroke-width:1.5;"/>
   </g>
   <g id="line2d_29">
    <path clip-path="url(#p75422ac93d)" d="M 459.55352 153.522319 
L 460.288584 145.127019 
M 461.758711 155.42595 
L 462.493775 146.580987 
M 463.963903 155.303532 
L 464.698967 146.215059 
M 466.169094 155.732713 
L 466.904158 147.78803 
L 467.639222 129.023354 
L 468.374286 156.897453 
L 469.10935 148.518134 
L 469.844414 128.302948 
L 470.579478 156.846302 
L 471.314541 148.222693 
L 472.049605 127.398213 
L 472.784669 156.930191 
L 473.519733 149.453909 
L 474.254797 131.33892 
L 474.989861 158.298431 
L 475.724924 150.702855 
L 476.459988 131.649 
L 477.195052 158.33249 
L 477.930116 150.535635 
L 478.66518 130.889199 
L 479.400244 158.125324 
L 480.135308 151.276156 
L 480.870371 134.209281 
L 481.605435 158.862325 
L 482.340499 151.70447 
L 483.075563 133.676821 
L 483.810627 158.961346 
L 484.545691 151.598156 
L 485.280755 133.005858 
L 486.015818 158.543334 
L 486.750882 152.021374 
L 487.485946 135.846456 
L 488.22101 159.004829 
L 488.956074 152.174838 
L 489.691138 135.009129 
L 490.426201 159.131818 
L 491.161265 152.112813 
L 491.896329 134.443942 
L 492.631393 158.546112 
L 493.366457 152.338129 
L 494.101521 136.855375 
L 494.836585 158.877553 
L 495.571648 152.382848 
L 496.306712 135.86189 
L 497.041776 159.037779 
L 497.77684 152.36697 
L 498.511904 135.374542 
L 499.246968 158.28807 
L 499.982031 152.431201 
L 500.717095 137.484566 
L 501.452159 158.526037 
L 502.187223 152.401825 
L 502.922287 136.413355 
L 503.657351 158.7123 
L 504.392415 152.424199 
L 505.127478 135.965063 
L 505.862542 157.861152 
L 506.597606 152.35539 
L 507.33267 137.870763 
L 508.067734 158.017416 
L 508.802798 152.316922 
L 509.537862 136.772892 
L 510.272925 158.228521 
L 511.007989 152.355652 
L 511.743053 136.381833 
L 512.478117 157.304369 
L 513.213181 152.181838 
L 513.948245 138.093212 
L 514.683308 157.391143 
L 515.418372 152.143057 
L 516.153436 136.997323 
L 516.8885 157.609854 
L 517.623564 152.21142 
L 518.358628 136.636887 
L 519.093692 156.662705 
L 519.828755 151.97359 
L 520.563819 138.202231 
M 556.581948 127.421103 
L 558.052076 127.421103 
L 558.787139 130.28735 
L 560.257267 130.28735 
L 560.992331 134.303788 
L 562.462459 134.303788 
L 563.197523 136.978926 
L 564.66765 136.978926 
L 565.402714 138.85715 
L 566.872842 138.85715 
L 567.607906 140.22094 
L 569.078033 140.22094 
L 569.813097 141.129355 
L 571.283225 141.129355 
L 572.018289 141.830179 
L 573.488416 141.830179 
L 574.22348 142.35385 
L 575.693608 142.35385 
L 575.693608 142.35385 
" style="fill:none;stroke:#2ca02c;stroke-linecap:square;stroke-width:1.5;"/>
   </g>
   <g id="line2d_30">
    <path clip-path="url(#p75422ac93d)" d="M 474.989861 158.298431 
L 475.724924 150.702855 
M 477.195052 158.33249 
L 477.930116 150.535635 
M 479.400244 158.125324 
L 480.135308 151.276156 
M 481.605435 158.862325 
L 482.340499 151.70447 
M 483.810627 158.961346 
L 484.545691 151.598156 
M 486.015818 158.543334 
L 486.750882 152.021374 
M 488.22101 159.004829 
L 488.956074 152.174838 
M 490.426201 159.131818 
L 491.161265 152.112813 
M 492.631393 158.546112 
L 493.366457 152.338129 
M 494.836585 158.877553 
L 495.571648 152.382848 
M 497.041776 159.037779 
L 497.77684 152.36697 
M 499.246968 158.28807 
L 499.982031 152.431201 
M 501.452159 158.526037 
L 502.187223 152.401825 
M 503.657351 158.7123 
L 504.392415 152.424199 
M 505.862542 157.861152 
L 506.597606 152.35539 
M 508.067734 158.017416 
L 508.802798 152.316922 
M 510.272925 158.228521 
L 511.007989 152.355652 
M 512.478117 157.304369 
L 513.213181 152.181838 
M 514.683308 157.391143 
L 515.418372 152.143057 
M 516.8885 157.609854 
L 517.623564 152.21142 
M 519.093692 156.662705 
L 519.828755 151.97359 
L 519.828755 151.97359 
" style="fill:none;stroke:#d62728;stroke-linecap:square;stroke-width:1.5;"/>
   </g>
   <g id="patch_8">
    <path d="M 344.920312 166.2 
L 344.920312 10.7 
" style="fill:none;stroke:#000000;stroke-linecap:square;stroke-linejoin:miter;stroke-width:0.8;"/>
   </g>
   <g id="patch_9">
    <path d="M 586.682812 166.2 
L 586.682812 10.7 
" style="fill:none;stroke:#000000;stroke-linecap:square;stroke-linejoin:miter;stroke-width:0.8;"/>
   </g>
   <g id="patch_10">
    <path d="M 344.920312 166.2 
L 586.682812 166.2 
" style="fill:none;stroke:#000000;stroke-linecap:square;stroke-linejoin:miter;stroke-width:0.8;"/>
   </g>
   <g id="patch_11">
    <path d="M 344.920312 10.7 
L 586.682812 10.7 
" style="fill:none;stroke:#000000;stroke-linecap:square;stroke-linejoin:miter;stroke-width:0.8;"/>
   </g>
   <g id="legend_1">
    <g id="patch_12">
     <path d="M 421.298437 48.05625 
L 510.304687 48.05625 
Q 512.304687 48.05625 512.304687 46.05625 
L 512.304687 17.7 
Q 512.304687 15.7 510.304687 15.7 
L 421.298437 15.7 
Q 419.298437 15.7 419.298437 17.7 
L 419.298437 46.05625 
Q 419.298437 48.05625 421.298437 48.05625 
z
" style="fill:#ffffff;opacity:0.8;stroke:#cccccc;stroke-linejoin:miter;"/>
    </g>
    <g id="line2d_31">
     <path d="M 423.298437 23.798438 
L 443.298437 23.798438 
" style="fill:none;stroke:#2ca02c;stroke-linecap:square;stroke-width:1.5;"/>
    </g>
    <g id="line2d_32"/>
    <g id="text_16">
     <!-- Optim bias -->
     <defs>
      <path d="M 39.40625 66.21875 
Q 28.65625 66.21875 22.328125 58.203125 
Q 16.015625 50.203125 16.015625 36.375 
Q 16.015625 22.609375 22.328125 14.59375 
Q 28.65625 6.59375 39.40625 6.59375 
Q 50.140625 6.59375 56.421875 14.59375 
Q 62.703125 22.609375 62.703125 36.375 
Q 62.703125 50.203125 56.421875 58.203125 
Q 50.140625 66.21875 39.40625 66.21875 
z
M 39.40625 74.21875 
Q 54.734375 74.21875 63.90625 63.9375 
Q 73.09375 53.65625 73.09375 36.375 
Q 73.09375 19.140625 63.90625 8.859375 
Q 54.734375 -1.421875 39.40625 -1.421875 
Q 24.03125 -1.421875 14.8125 8.828125 
Q 5.609375 19.09375 5.609375 36.375 
Q 5.609375 53.65625 14.8125 63.9375 
Q 24.03125 74.21875 39.40625 74.21875 
z
" id="DejaVuSans-4f"/>
      <path d="M 18.109375 8.203125 
L 18.109375 -20.796875 
L 9.078125 -20.796875 
L 9.078125 54.6875 
L 18.109375 54.6875 
L 18.109375 46.390625 
Q 20.953125 51.265625 25.265625 53.625 
Q 29.59375 56 35.59375 56 
Q 45.5625 56 51.78125 48.09375 
Q 58.015625 40.1875 58.015625 27.296875 
Q 58.015625 14.40625 51.78125 6.484375 
Q 45.5625 -1.421875 35.59375 -1.421875 
Q 29.59375 -1.421875 25.265625 0.953125 
Q 20.953125 3.328125 18.109375 8.203125 
z
M 48.6875 27.296875 
Q 48.6875 37.203125 44.609375 42.84375 
Q 40.53125 48.484375 33.40625 48.484375 
Q 26.265625 48.484375 22.1875 42.84375 
Q 18.109375 37.203125 18.109375 27.296875 
Q 18.109375 17.390625 22.1875 11.75 
Q 26.265625 6.109375 33.40625 6.109375 
Q 40.53125 6.109375 44.609375 11.75 
Q 48.6875 17.390625 48.6875 27.296875 
z
" id="DejaVuSans-70"/>
      <path d="M 48.6875 27.296875 
Q 48.6875 37.203125 44.609375 42.84375 
Q 40.53125 48.484375 33.40625 48.484375 
Q 26.265625 48.484375 22.1875 42.84375 
Q 18.109375 37.203125 18.109375 27.296875 
Q 18.109375 17.390625 22.1875 11.75 
Q 26.265625 6.109375 33.40625 6.109375 
Q 40.53125 6.109375 44.609375 11.75 
Q 48.6875 17.390625 48.6875 27.296875 
z
M 18.109375 46.390625 
Q 20.953125 51.265625 25.265625 53.625 
Q 29.59375 56 35.59375 56 
Q 45.5625 56 51.78125 48.09375 
Q 58.015625 40.1875 58.015625 27.296875 
Q 58.015625 14.40625 51.78125 6.484375 
Q 45.5625 -1.421875 35.59375 -1.421875 
Q 29.59375 -1.421875 25.265625 0.953125 
Q 20.953125 3.328125 18.109375 8.203125 
L 18.109375 0 
L 9.078125 0 
L 9.078125 75.984375 
L 18.109375 75.984375 
z
" id="DejaVuSans-62"/>
     </defs>
     <g transform="translate(451.298437 27.298438)scale(0.1 -0.1)">
      <use xlink:href="#DejaVuSans-4f"/>
      <use x="78.710938" xlink:href="#DejaVuSans-70"/>
      <use x="142.1875" xlink:href="#DejaVuSans-74"/>
      <use x="181.396484" xlink:href="#DejaVuSans-69"/>
      <use x="209.179688" xlink:href="#DejaVuSans-6d"/>
      <use x="306.591797" xlink:href="#DejaVuSans-20"/>
      <use x="338.378906" xlink:href="#DejaVuSans-62"/>
      <use x="401.855469" xlink:href="#DejaVuSans-69"/>
      <use x="429.638672" xlink:href="#DejaVuSans-61"/>
      <use x="490.917969" xlink:href="#DejaVuSans-73"/>
     </g>
    </g>
    <g id="line2d_33">
     <path d="M 423.298437 38.476562 
L 443.298437 38.476562 
" style="fill:none;stroke:#d62728;stroke-linecap:square;stroke-width:1.5;"/>
    </g>
    <g id="line2d_34"/>
    <g id="text_17">
     <!-- Optim MAD -->
     <g transform="translate(451.298437 41.976562)scale(0.1 -0.1)">
      <use xlink:href="#DejaVuSans-4f"/>
      <use x="78.710938" xlink:href="#DejaVuSans-70"/>
      <use x="142.1875" xlink:href="#DejaVuSans-74"/>
      <use x="181.396484" xlink:href="#DejaVuSans-69"/>
      <use x="209.179688" xlink:href="#DejaVuSans-6d"/>
      <use x="306.591797" xlink:href="#DejaVuSans-20"/>
      <use x="338.378906" xlink:href="#DejaVuSans-4d"/>
      <use x="424.658203" xlink:href="#DejaVuSans-41"/>
      <use x="493.066406" xlink:href="#DejaVuSans-44"/>
     </g>
    </g>
   </g>
  </g>
 </g>
 <defs>
  <clipPath id="p612c88d3c9">
   <rect height="155.5" width="241.7625" x="48.982813" y="10.7"/>
  </clipPath>
  <clipPath id="p75422ac93d">
   <rect height="155.5" width="241.7625" x="344.920312" y="10.7"/>
  </clipPath>
 </defs>
</svg>
